<svg xmlns="http://www.w3.org/2000/svg" width="165" height="75" viewBox="0 0 165 75" fill="none"><g clip-path="url(#clip0_2071_3341)"><path d="M72.0808 43.4079C70.7502 44.7555 69.1711 45.4278 67.3437 45.4278C66.1401 45.4278 65.0312 45.1236 64.017 44.5152C63.0027 43.9068 62.2014 43.0793 61.61 42.0389C61.0185 40.9955 60.7228 39.8547 60.7228 38.6166C60.7228 37.3784 61.0185 36.2255 61.61 35.1759C62.2014 34.1264 63.0027 33.2959 64.017 32.6814C65.0312 32.0699 66.1401 31.7627 67.3437 31.7627C68.2337 31.7627 69.0854 31.9391 69.8956 32.2951C70.7058 32.651 71.4362 33.159 72.0808 33.8222L70.3451 35.5866C69.4993 34.7196 68.4999 34.2846 67.3437 34.2846C66.1875 34.2846 65.2116 34.7075 64.3955 35.5532C63.5823 36.3989 63.1742 37.418 63.1742 38.6166C63.1742 39.8151 63.5823 40.8099 64.3955 41.6495C65.2087 42.4861 66.1934 42.9059 67.3437 42.9059C68.4939 42.9059 69.5141 42.477 70.3451 41.6222L72.0808 43.4079Z" fill="#6D6F71"></path><path d="M78.264 31.9785V42.9057H83.5689V45.2147H76.0196V31.9816H78.264V31.9785Z" fill="#6D6F71"></path><path d="M100.294 38.6166C100.294 39.5414 100.12 40.4236 99.7706 41.2632C99.4216 42.1028 98.9485 42.8299 98.3541 43.4383C97.7598 44.0467 97.0501 44.5304 96.231 44.8894C95.4089 45.2483 94.5484 45.4278 93.6436 45.4278C92.4401 45.4278 91.3312 45.1236 90.3169 44.5152C89.3026 43.9068 88.5013 43.0793 87.9099 42.0389C87.3185 40.9955 87.0228 39.8547 87.0228 38.6166C87.0228 37.3784 87.3185 36.2255 87.9099 35.1759C88.5013 34.1264 89.3026 33.2959 90.3169 32.6814C91.3312 32.0699 92.4401 31.7627 93.6436 31.7627C94.5484 31.7627 95.4089 31.9452 96.231 32.3072C97.053 32.6692 97.7598 33.156 98.3541 33.7705C98.9485 34.3819 99.4216 35.1121 99.7706 35.9547C100.12 36.8004 100.294 37.6857 100.294 38.6166ZM89.4741 38.6166C89.4741 39.7999 89.8822 40.8099 90.6954 41.6495C91.5086 42.4861 92.4933 42.9059 93.6436 42.9059C94.7939 42.9059 95.7993 42.4861 96.6213 41.6495C97.4434 40.813 97.8544 39.7999 97.8544 38.6166C97.8544 37.4332 97.4434 36.3989 96.6213 35.5532C95.7993 34.7075 94.8087 34.2846 93.6436 34.2846C92.4785 34.2846 91.5116 34.7075 90.6954 35.5532C89.8822 36.3989 89.4741 37.418 89.4741 38.6166Z" fill="#6D6F71"></path><path d="M104.641 42.9056H111.543C111.962 42.9056 112.317 42.7505 112.61 42.4402C112.903 42.1299 113.048 41.7588 113.048 41.3268C113.048 40.8948 112.903 40.5298 112.61 40.2286C112.317 39.9274 111.962 39.7784 111.543 39.7784C109.476 39.7784 108.325 39.7723 108.092 39.7571C107.122 39.6749 106.303 39.2642 105.637 38.522C104.972 37.7797 104.641 36.9036 104.641 35.8905C104.641 34.8106 105.007 33.8888 105.738 33.1253C106.468 32.3617 107.355 31.9814 108.399 31.9814H115.301V34.2904H108.399C107.979 34.2904 107.622 34.4455 107.326 34.7558C107.03 35.0661 106.882 35.4373 106.882 35.8693C106.882 36.3012 107.03 36.6693 107.326 36.9766C107.622 37.2838 107.979 37.439 108.399 37.439C110.481 37.439 111.631 37.4451 111.85 37.4603C112.82 37.5424 113.639 37.9561 114.304 38.7015C114.97 39.4468 115.301 40.329 115.301 41.3481C115.301 42.4219 114.934 43.3346 114.204 44.086C113.473 44.8374 112.586 45.2146 111.543 45.2146H104.641V42.9056Z" fill="#6D6F71"></path><path d="M118.953 31.9785H128.625V34.2875H121.197V37.436H126.502V39.7541H121.197V42.9027H128.625V45.2117H118.953V31.9785Z" fill="#6D6F71"></path><path d="M133.422 31.9785V42.9057H138.727V45.2147H131.177V31.9816H133.422V31.9785Z" fill="#6D6F71"></path><path d="M146.087 31.9785V42.9057H151.392V45.2147H143.842V31.9816H146.087V31.9785Z" fill="#6D6F71"></path><path d="M158.979 39.4987L158.941 45.2118H156.487L156.525 39.517L150.502 31.9756H153.624L157.752 37.1867L161.871 31.9756H165.003L158.979 39.4957V39.4987Z" fill="#6D6F71"></path><path d="M31.593 41.4516L26.1403 38.3031C25.9303 38.1814 25.8002 37.9532 25.8002 37.7068V35.4222C25.8002 34.8929 26.3591 34.5643 26.7997 34.832L31.5339 37.6947C31.7439 37.8224 32.0041 37.8194 32.2111 37.6947L42.0048 31.6591C42.4395 31.3914 42.4336 30.7434 41.9959 30.4818L33.0243 25.1521C32.3737 24.7657 31.5724 24.7657 30.9218 25.1521L21.8585 30.5366C21.2079 30.9229 20.8087 31.6378 20.8087 32.4075V43.1735C20.8087 43.9462 21.2079 44.6611 21.8585 45.0444L30.9218 50.4289C31.5724 50.8152 32.3737 50.8152 33.0243 50.4289L42.8062 44.6185C43.0102 44.4968 43.1373 44.2717 43.1373 44.0283V35.9394C43.1373 35.41 42.5755 35.0815 42.1319 35.3522L32.2554 41.4395C32.0514 41.5642 31.7971 41.5703 31.5901 41.4486L31.593 41.4516Z" fill="#929498"></path><path d="M62.3552 17.581C63.0412 18.0008 63.0471 19.0229 62.364 19.4458L53.3332 25.0554L53.2889 25.0828L50.9587 26.5248C50.5891 26.756 50.1722 26.8716 49.7523 26.8655L49.5837 25.0524L48.0638 8.8623L62.3611 17.5749L62.3552 17.581Z" fill="#F4D45D"></path><path d="M49.7492 26.8683C49.3648 26.8652 48.9775 26.7618 48.6315 26.558C48.6226 26.5519 48.6167 26.5489 48.6078 26.5428L46.1594 25.0552L31.9774 16.4552L48.0608 8.86816L49.5807 25.0582L49.7492 26.8713V26.8683Z" fill="#EBB006"></path><path d="M62.4557 57.599C63.1417 57.1792 63.1476 56.157 62.4646 55.7342L53.4338 50.1245L53.3894 50.0972L51.0592 48.6552C50.6896 48.424 50.2697 48.2323 49.8528 48.2354L49.6842 50.1245L48.1643 66.3146L62.4616 57.602L62.4557 57.599Z" fill="#00C4B2"></path><path d="M49.8498 48.2363C49.4654 48.2394 49.078 48.3428 48.7321 48.5466C48.7232 48.5527 48.7173 48.5558 48.7084 48.5618L46.26 50.0494L32.078 58.6494L48.1614 66.3155L49.6813 50.0494L49.8498 48.2363Z" fill="#008D80"></path><path d="M48.0608 8.86781L31.9774 16.4548V8.14676e-05C32.3056 -0.00296064 32.6309 0.0791761 32.9266 0.249534L35.3928 1.65499L35.792 1.8801L48.0608 8.86781Z" fill="#DE7F00"></path><path d="M31.9774 0V16.4547L16.0508 9.07155L28.2841 1.87698L31.0341 0.258579C31.3269 0.0912631 31.6521 0.0030421 31.9774 0Z" fill="#F35754"></path><path d="M14.3387 26.9719L31.9775 16.4584L16.0509 9.0752L14.3387 26.9719Z" fill="#DF1000"></path><path d="M16.0508 9.0752L14.3387 26.9749L1.48738 19.3818L0.357788 18.7156C0.58548 18.3141 0.904841 17.9764 1.307 17.7391C1.31291 17.7361 1.31883 17.733 1.32474 17.7269L2.57261 16.9968L16.0538 9.07824L16.0508 9.0752Z" fill="#F13E3A"></path><path d="M14.3387 26.9711L0 37.7919V20.0686C0 19.5849 0.127153 19.1194 0.354845 18.7148L1.48444 19.3811L14.3357 26.9742L14.3387 26.9711Z" fill="#A43672"></path><path d="M14.3387 48.0535V26.9717L0 37.7924L14.3387 48.0535Z" fill="#6A0B36"></path><path d="M14.3387 48.0531L1.71508 55.6036L0.422857 56.3763C0.150809 55.8835 0 55.3237 0 54.7366V37.7891L14.3387 48.0501V48.0531Z" fill="#B24382"></path><path d="M15.906 66.3155L3.08717 58.5094L1.57908 57.5937C1.57908 57.5937 1.57317 57.5907 1.57317 57.5877C1.08526 57.2895 0.69197 56.8697 0.419922 56.3769L1.71215 55.6042L14.3358 48.0537L15.903 66.3155H15.906Z" fill="#0C5D7A"></path><path d="M32.0514 58.6494L14.3387 48.0537L15.906 66.3155L32.0514 58.6494Z" fill="#429BB1"></path><path d="M32.0513 58.6455V74.9999C31.4806 74.9999 30.907 74.8538 30.3895 74.5587L15.9059 66.3116L32.0513 58.6455Z" fill="#5BACBE"></path><path d="M48.1613 66.3155L35.3248 73.6409L33.7162 74.5596C33.1987 74.8547 32.625 75.0038 32.0543 75.0038V58.6494L48.1613 66.3155Z" fill="#00A79E"></path></g><defs><clipPath id="clip0_2071_3341"><rect width="165" height="75" fill="white"></rect></clipPath></defs></svg>